<?xml version="1.0" encoding="UTF-8" standalone="no"?>
<!-- Created with Inkscape (http://www.inkscape.org/) -->

<svg
   xmlns:dc="http://purl.org/dc/elements/1.1/"
   xmlns:cc="http://creativecommons.org/ns#"
   xmlns:rdf="http://www.w3.org/1999/02/22-rdf-syntax-ns#"
   xmlns:svg="http://www.w3.org/2000/svg"
   xmlns="http://www.w3.org/2000/svg"
   xmlns:xlink="http://www.w3.org/1999/xlink"
   xmlns:sodipodi="http://sodipodi.sourceforge.net/DTD/sodipodi-0.dtd"
   xmlns:inkscape="http://www.inkscape.org/namespaces/inkscape"
   width="16"
   height="16"
   viewBox="0 0 16 16"
   id="svg2"
   version="1.1"
   inkscape:version="0.91 r13725"
   sodipodi:docname="favicon.svg"
   inkscape:export-filename="favicon.png"
   inkscape:export-xdpi="5760"
   inkscape:export-ydpi="5760">
  <defs
     id="defs4">
    <linearGradient
       inkscape:collect="always"
       id="linearGradient4282">
      <stop
         style="stop-color:#26c6da;stop-opacity:1"
         offset="0"
         id="stop4284" />
      <stop
         id="stop4294"
         offset="0.25"
         style="stop-color:#26c6da;stop-opacity:1" />
      <stop
         id="stop4290"
         offset="0.35714287"
         style="stop-color:#26c6da;stop-opacity:0.88627452" />
      <stop
         style="stop-color:#26c6da;stop-opacity:1"
         offset="0.5"
         id="stop4292" />
      <stop
         style="stop-color:#26c6da;stop-opacity:1"
         offset="1"
         id="stop4286" />
    </linearGradient>
    <linearGradient
       inkscape:collect="always"
       xlink:href="#linearGradient4282"
       id="linearGradient4288"
       x1="7"
       y1="1"
       x2="7"
       y2="15"
       gradientUnits="userSpaceOnUse" />
  </defs>
  <sodipodi:namedview
     id="base"
     pagecolor="#ffffff"
     bordercolor="#666666"
     borderopacity="1.0"
     inkscape:pageopacity="0"
     inkscape:pageshadow="2"
     inkscape:zoom="32"
     inkscape:cx="0.7797981"
     inkscape:cy="6.889946"
     inkscape:document-units="px"
     inkscape:current-layer="layer1"
     showgrid="true"
     units="px"
     objecttolerance="10000"
     inkscape:snap-bbox="true"
     inkscape:bbox-nodes="true"
     inkscape:window-width="1920"
     inkscape:window-height="1055"
     inkscape:window-x="0"
     inkscape:window-y="25"
     inkscape:window-maximized="1">
    <inkscape:grid
       type="xygrid"
       id="grid4136"
       dotted="false" />
  </sodipodi:namedview>
  <metadata
     id="metadata7">
    <rdf:RDF>
      <cc:Work
         rdf:about="">
        <dc:format>image/svg+xml</dc:format>
        <dc:type
           rdf:resource="http://purl.org/dc/dcmitype/StillImage" />
        <dc:title />
      </cc:Work>
    </rdf:RDF>
  </metadata>
  <g
     inkscape:label="Layer 1"
     inkscape:groupmode="layer"
     id="layer1"
     transform="translate(0,-1036.3622)">
    <path
       style="color:#000000;clip-rule:nonzero;display:inline;overflow:visible;visibility:visible;opacity:1;isolation:auto;mix-blend-mode:normal;color-interpolation:sRGB;color-interpolation-filters:linearRGB;solid-color:#000000;solid-opacity:1;fill:url(#linearGradient4288);fill-opacity:1;fill-rule:nonzero;stroke:none;stroke-width:0.2;stroke-miterlimit:4;stroke-dasharray:none;stroke-opacity:1;color-rendering:auto;image-rendering:auto;shape-rendering:auto;text-rendering:auto;enable-background:accumulate"
       d="M 7 1 L 7 4 L 6 4 L 5 4 L 5 5 L 6 5 L 6 6 L 8 6 L 9 6 L 9 7 L 8 7 L 8 8 L 9 8 L 9 9 L 10 9 L 10 10 L 8 10 L 8 8 L 7 8 L 6 8 L 6 6 L 4 6 L 4 8 L 5 8 L 5 10 L 7 10 L 7 11 L 6 11 L 6 12 L 7 12 L 7 15 L 10.427734 12 L 10 12 L 10 11 L 10.5 11 L 11.572266 11 L 15 8 L 7 1 z M 4 8 L 3 8 L 3 9 L 4 9 L 4 8 z M 1 4 L 1 5 L 2 5 L 2 4 L 1 4 z M 2 5 L 2 6 L 3 6 L 3 5 L 2 5 z M 3 5 L 4 5 L 4 4 L 3 4 L 3 5 z M 1 11 L 1 12 L 2 12 L 3 12 L 3 11 L 2 11 L 1 11 z M 4 11 L 4 12 L 5 12 L 5 11 L 4 11 z "
       transform="translate(0,1036.3622)"
       id="rect4138" />
    <path
       id="path4150"
       transform="translate(0,1036.3622)"
       d="m 6,12 1,0 0,3 3.427734,-3 M 11.572266,11 15,8 7,1 7,4 6,4 5,4 M 2,4 1,4 M 4,4 3,4 m -2,8 1,0 1,0 m 1,0 1,0"
       style="color:#000000;clip-rule:nonzero;display:inline;overflow:visible;visibility:visible;opacity:1;isolation:auto;mix-blend-mode:normal;color-interpolation:sRGB;color-interpolation-filters:linearRGB;solid-color:#000000;solid-opacity:1;fill:none;fill-opacity:1;fill-rule:nonzero;stroke:#167482;stroke-width:0.8;stroke-miterlimit:4;stroke-dasharray:none;stroke-opacity:1;color-rendering:auto;image-rendering:auto;shape-rendering:auto;text-rendering:auto;enable-background:accumulate;stroke-linecap:butt"
       inkscape:connector-curvature="0"
       sodipodi:nodetypes="ccccccccccccccccccc" />
  </g>
</svg>
