<?xml version="1.0" encoding="UTF-8" standalone="no"?>
<!-- Created with Inkscape (http://www.inkscape.org/) -->

<svg
   xmlns:dc="http://purl.org/dc/elements/1.1/"
   xmlns:cc="http://creativecommons.org/ns#"
   xmlns:rdf="http://www.w3.org/1999/02/22-rdf-syntax-ns#"
   xmlns:svg="http://www.w3.org/2000/svg"
   xmlns="http://www.w3.org/2000/svg"
   xmlns:sodipodi="http://sodipodi.sourceforge.net/DTD/sodipodi-0.dtd"
   xmlns:inkscape="http://www.inkscape.org/namespaces/inkscape"
   width="200mm"
   height="200mm"
   viewBox="0 0 708.66142 708.66141"
   id="svg2"
   version="1.1"
   inkscape:version="0.91 r13725"
   sodipodi:docname="motif.svg">
  <defs
     id="defs4" />
  <sodipodi:namedview
     id="base"
     pagecolor="#f7f7f7"
     bordercolor="#666666"
     borderopacity="1.0"
     inkscape:pageopacity="1"
     inkscape:pageshadow="2"
     inkscape:zoom="0.70710678"
     inkscape:cx="-6.5671953"
     inkscape:cy="467.89873"
     inkscape:document-units="px"
     inkscape:current-layer="layer1"
     showgrid="false"
     inkscape:window-width="1920"
     inkscape:window-height="1055"
     inkscape:window-x="0"
     inkscape:window-y="25"
     inkscape:window-maximized="1" />
  <metadata
     id="metadata7">
    <rdf:RDF>
      <cc:Work
         rdf:about="">
        <dc:format>image/svg+xml</dc:format>
        <dc:type
           rdf:resource="http://purl.org/dc/dcmitype/StillImage" />
        <dc:title></dc:title>
      </cc:Work>
    </rdf:RDF>
  </metadata>
  <g
     inkscape:label="Layer 1"
     inkscape:groupmode="layer"
     id="layer1"
     transform="translate(0,-343.70079)"
     style="opacity:1">
    <text
       xml:space="preserve"
       style="font-style:normal;font-weight:normal;font-size:15px;line-height:125%;font-family:Sans;text-align:start;letter-spacing:0px;word-spacing:0px;text-anchor:start;fill:#45e8ff;fill-opacity:1;stroke:none;stroke-width:1px;stroke-linecap:butt;stroke-linejoin:miter;stroke-opacity:1;"
       x="1116.2185"
       y="624.05756"
       id="text4183"
       sodipodi:linespacing="125%"><tspan
         sodipodi:role="line"
         id="tspan4185"
         x="1116.2185"
         y="624.05756">Video editor</tspan></text>
    <text
       xml:space="preserve"
       style="font-style:normal;font-weight:normal;font-size:15px;line-height:125%;font-family:Sans;text-align:start;letter-spacing:0px;word-spacing:0px;text-anchor:start;fill:#45e8ff;fill-opacity:1;stroke:none;stroke-width:1px;stroke-linecap:butt;stroke-linejoin:miter;stroke-opacity:1;"
       x="1137.4318"
       y="528.09308"
       id="text4187"
       sodipodi:linespacing="125%"><tspan
         sodipodi:role="line"
         id="tspan4189"
         x="1137.4318"
         y="528.09308">IDE</tspan></text>
    <text
       xml:space="preserve"
       style="font-style:normal;font-weight:normal;font-size:15px;line-height:125%;font-family:Sans;text-align:start;letter-spacing:0px;word-spacing:0px;text-anchor:start;fill:#45e8ff;fill-opacity:1;stroke:none;stroke-width:1px;stroke-linecap:butt;stroke-linejoin:miter;stroke-opacity:1;"
       x="1201.0714"
       y="441.21994"
       id="text4210"
       sodipodi:linespacing="125%"><tspan
         sodipodi:role="line"
         id="tspan4212"
         x="1201.0714"
         y="441.21994">VR headset</tspan></text>
    <path
       style="fill:#ffffff;fill-rule:evenodd;stroke:#000000;stroke-width:0.99999994px;stroke-linecap:butt;stroke-linejoin:miter;stroke-opacity:1;fill-opacity:1"
       d="m 968.29303,680.90428 0,-313.55094"
       id="path4220"
       inkscape:connector-curvature="0" />
    <path
       style="fill:#ffffff;fill-rule:evenodd;stroke:#000000;stroke-width:0.99999994px;stroke-linecap:butt;stroke-linejoin:miter;stroke-opacity:1;fill-opacity:1"
       d="m 1334.3891,680.90428 0,-313.55094"
       id="path4228"
       inkscape:connector-curvature="0" />
    <path
       inkscape:connector-curvature="0"
       id="path4230"
       d="m 989.4605,344.09007 322.9572,0"
       style="fill:#ffffff;fill-rule:evenodd;stroke:#000000;stroke-width:1px;stroke-linecap:butt;stroke-linejoin:miter;stroke-opacity:1;fill-opacity:1" />
    <path
       inkscape:connector-curvature="0"
       id="path4238"
       d="m 989.4605,710.18646 322.9572,0"
       style="fill:#ffffff;fill-rule:evenodd;stroke:#000000;stroke-width:1px;stroke-linecap:butt;stroke-linejoin:miter;stroke-opacity:1;fill-opacity:1" />
    <path
       inkscape:connector-curvature="0"
       id="path4193"
       d="m 0.5,269.97046 0,-80.8122"
       style="fill:#ffffff;fill-rule:evenodd;stroke:#b6b6b6;stroke-width:1px;stroke-linecap:butt;stroke-linejoin:miter;stroke-opacity:1;fill-opacity:1" />
    <path
       style="fill:#ffffff;fill-rule:evenodd;stroke:#b6b6b6;stroke-width:1px;stroke-linecap:butt;stroke-linejoin:miter;stroke-opacity:1;fill-opacity:1"
       d="m 236.38715,269.97046 0,-80.8122"
       id="path4195"
       inkscape:connector-curvature="0" />
    <path
       inkscape:connector-curvature="0"
       id="path4197"
       d="m 354.33072,269.97046 0,-80.8122"
       style="fill:#ffffff;fill-rule:evenodd;stroke:#000000;stroke-width:1px;stroke-linecap:butt;stroke-linejoin:miter;stroke-opacity:1;fill-opacity:1" />
    <path
       style="fill:#ffffff;fill-rule:evenodd;stroke:#b6b6b6;stroke-width:1px;stroke-linecap:butt;stroke-linejoin:miter;stroke-opacity:1;fill-opacity:1"
       d="m 472.27429,269.97046 0,-80.8122"
       id="path4199"
       inkscape:connector-curvature="0" />
    <path
       inkscape:connector-curvature="0"
       id="path4201"
       d="m 708.1615,269.97046 0,-80.8122"
       style="fill:#ffffff;fill-rule:evenodd;stroke:#b6b6b6;stroke-width:1px;stroke-linecap:butt;stroke-linejoin:miter;stroke-opacity:1;fill-opacity:1" />
    <path
       inkscape:connector-curvature="0"
       id="path4404"
       d="m 590.2179,269.97046 0,-80.8122"
       style="fill:#ffffff;fill-rule:evenodd;stroke:#000000;stroke-width:1px;stroke-linecap:butt;stroke-linejoin:miter;stroke-opacity:1;fill-opacity:1" />
    <path
       inkscape:connector-curvature="0"
       id="path4406"
       d="m 118.44357,269.97046 0,-80.8122"
       style="fill:#ffffff;fill-rule:evenodd;stroke:#000000;stroke-width:1px;stroke-linecap:butt;stroke-linejoin:miter;stroke-opacity:1;fill-opacity:1" />
    <path
       style="fill:#ffffff;fill-rule:evenodd;stroke:#b6b6b6;stroke-width:1px;stroke-linecap:butt;stroke-linejoin:miter;stroke-opacity:1;fill-opacity:1"
       d="m -82.05515,1051.8623 -80.8122,0"
       id="path4419"
       inkscape:connector-curvature="0" />
    <path
       inkscape:connector-curvature="0"
       id="path4421"
       d="m -82.05515,815.97515 -80.8122,0"
       style="fill:#ffffff;fill-rule:evenodd;stroke:#b6b6b6;stroke-width:1px;stroke-linecap:butt;stroke-linejoin:miter;stroke-opacity:1;fill-opacity:1" />
    <path
       style="fill:#ffffff;fill-rule:evenodd;stroke:#000000;stroke-width:1px;stroke-linecap:butt;stroke-linejoin:miter;stroke-opacity:1;fill-opacity:1"
       d="m -82.05515,698.03158 -80.8122,0"
       id="path4423"
       inkscape:connector-curvature="0" />
    <path
       inkscape:connector-curvature="0"
       id="path4425"
       d="m -82.05515,580.08801 -80.8122,0"
       style="fill:#ffffff;fill-rule:evenodd;stroke:#b6b6b6;stroke-width:1px;stroke-linecap:butt;stroke-linejoin:miter;stroke-opacity:1;fill-opacity:1" />
    <path
       style="fill:#ffffff;fill-rule:evenodd;stroke:#b6b6b6;stroke-width:1px;stroke-linecap:butt;stroke-linejoin:miter;stroke-opacity:1;fill-opacity:1"
       d="m -82.05515,344.2008 -80.8122,0"
       id="path4427"
       inkscape:connector-curvature="0" />
    <path
       style="fill:#ffffff;fill-rule:evenodd;stroke:#000000;stroke-width:1px;stroke-linecap:butt;stroke-linejoin:miter;stroke-opacity:1;fill-opacity:1"
       d="m -82.05515,462.1444 -80.8122,0"
       id="path4429"
       inkscape:connector-curvature="0" />
    <path
       style="fill:#ffffff;fill-rule:evenodd;stroke:#000000;stroke-width:1px;stroke-linecap:butt;stroke-linejoin:miter;stroke-opacity:1;fill-opacity:1"
       d="m -82.05515,933.91873 -80.8122,0"
       id="path4431"
       inkscape:connector-curvature="0" />
    <path
       style="fill:#00bcd4;fill-opacity:1;fill-rule:evenodd;stroke:none;stroke-width:5;stroke-linecap:butt;stroke-linejoin:miter;stroke-miterlimit:4;stroke-dasharray:none;stroke-opacity:1"
       d="m 160.45312,26.929688 c -0.85305,-0.0072 -1.70004,0.143744 -2.49804,0.445312 -13.21626,4.77961 -19.26894,12.639158 -22.99805,18.955078 -3.72911,6.31592 -5.42697,10.550113 -13.94531,15.251953 -0.50206,0.271384 -0.96851,0.604003 -1.38867,0.990235 -2.71607,0.232376 -5.48156,0.499166 -8.34375,0.835937 -46.808861,5.50766 -83.359272,28.324261 -82.714847,73.556637 0.803055,56.3667 38.172286,-3.82643 85.927737,-6.39648 47.75543,-2.57004 64.24363,95.94219 89.9414,7.99414 11.60629,-39.721372 -0.75666,-75.341157 -63,-76.763672 2.31477,-3.061659 3.96413,-6.007315 5.40821,-8.453125 3.35152,-5.67641 5.33043,-9.205461 15.80664,-12.994141 7.32284,-2.533392 5.55306,-13.353575 -2.19532,-13.421874 z m -47.79492,62.40625 c 7.5057,-0.0284 17.20236,1.698461 16.78321,3.451171 -1.41961,5.93619 -25.99289,3.334251 -25.26953,-1.130859 0.26806,-1.65467 3.98291,-2.303282 8.48632,-2.320312 z m 74.95508,1.853515 c 1.62082,-0.0826 3.51399,1.027328 5.42578,4.142578 4.09966,6.680359 -7.81765,13.505969 -9.9375,3.673828 -0.68132,-3.16001 1.41744,-7.658706 4.51172,-7.816406 z m -16.09961,2.166016 c 2.00762,-0.12929 4.21587,1.34141 6.19336,5.65039 3.01038,6.559651 -10.58396,13.832041 -12.49219,3.957031 -0.6346,-3.284029 2.4661,-9.360601 6.29883,-9.607421 z M 63.287109,94.201172 c 8.517676,0 4.257813,13.568358 4.257813,13.568358 0,0 9.9375,-5.37067 9.9375,1.13086 0,6.50155 -11.640625,6.21875 -11.640625,6.21875 0,0 1.136718,9.04454 -4.257813,9.89258 -5.394542,0.84802 -4.828125,-12.1543 -4.828125,-12.1543 0,0 -7.854647,4.35303 -9.652343,0.84766 -2.374041,-4.6292 10.927279,-7.77975 11.357422,-7.34961 0,0 -3.407593,-12.436978 4.826171,-12.154298 z m 89.882811,4.228516 c 2.49474,-0.0193 4.84059,1.458719 5.79883,5.380862 2.5553,10.45901 -11.63282,14.06745 -13.76953,2.82812 -0.75705,-3.98219 3.81281,-8.176792 7.9707,-8.208982 z m 28.4082,9.908202 c 2.27251,-0.12929 4.80001,1.34141 6.91797,5.65039 3.18401,6.47787 -6.9417,12.35866 -12.49218,3.95703 -2.16958,-3.28403 1.23582,-9.36059 5.57421,-9.60742 z m -16.00976,5.90234 c 1.95056,0.0373 4.25795,1.2091 6.74414,4.26954 4.5553,5.60744 -8.91562,13.36354 -12.49219,3.95898 -1.10164,-2.89677 1.45681,-8.31057 5.74805,-8.22852 z"
       transform="translate(0,343.70079)"
       id="path4245"
       inkscape:connector-curvature="0"
       sodipodi:nodetypes="ccsccsssscsccssssssssssssccscscsccssssssssssss" />
    <path
       style="fill:#00bcd4;fill-opacity:1;fill-rule:evenodd;stroke:none;stroke-width:1px;stroke-linecap:butt;stroke-linejoin:miter;stroke-opacity:1"
       d="m 274.54176,394.76834 c -5.73031,0.0646 -7.6729,8.32312 -1.75848,7.37533 11.80681,-1.89207 20.9209,9.13492 29.88253,14.04296 -10.13411,8.31655 -15.63924,19.75864 -13.01539,32.78128 3.96662,22.35728 20.8283,28.75256 34.258,38.02357 29.64311,20.46368 51.45393,48.34391 78.12383,26.79814 30.57286,-24.69887 1.08314,-102.3413 -46.4099,-111.98903 -12.85706,-2.61178 -33.8617,3.11174 -43.92715,8.43108 -1.32261,-0.47634 -2.80106,-1.07461 -4.45834,-1.95736 -14.10374,-7.63934 -16.8564,-12.25281 -32.12827,-13.48608 -0.1926,-0.0156 -0.38198,-0.022 -0.56683,-0.0199 z m 75.65102,14.65951 c 5.06254,-0.0643 9.46914,3.09528 15.89757,7.20296 9.79571,6.25933 16.49197,10.31693 8.75593,15.81636 -7.73605,5.49942 -8.88672,-2.74262 -19.69131,-9.46197 -10.80459,-6.71936 -19.53667,-6.90719 -13.84242,-10.47629 3.39701,-2.12921 6.22843,-3.04741 8.88023,-3.08106 z m -23.20826,9.94924 c 4.02651,0.0746 5.19155,1.66277 14.749,7.81122 10.19462,6.55834 17.94219,11.20716 8.7808,16.52571 -9.1614,5.31855 -13.60313,-3.39576 -22.25528,-9.71886 -8.65216,-6.3231 -17.62234,-5.75887 -12.59939,-9.6476 5.02295,-3.88873 6.48134,-4.86522 10.47794,-4.96716 0.29722,-0.008 0.5785,-0.008 0.84693,-0.003 z m -23.19335,23.37068 c 4.67409,0.88395 9.88324,3.82931 15.58598,7.67532 8.03911,5.42172 16.92403,13.01646 25.31645,20.91943 8.39242,7.90296 16.27657,16.10808 22.22544,22.73425 0.42029,0.46813 0.75143,0.86103 1.15188,1.31264 l 0,6.96265 c -1.34509,-1.58922 -2.83115,-3.30637 -4.55282,-5.22405 -5.86098,-6.52827 -13.67442,-14.66133 -21.95694,-22.46079 -8.28251,-7.79946 -17.04919,-15.27043 -24.73968,-20.45702 -5.0008,-3.37261 -9.59465,-5.60696 -13.03031,-6.56654 l 0,-4.89589 z"
       id="path4309"
       inkscape:connector-curvature="0" />
    <g
       id="g7061">
      <path
         id="path4332"
         transform="translate(0,343.70079)"
         d="M 554.88867 67.720703 C 525.07017 67.875063 528.72338 76.809942 529.29688 95.201172 C 529.87037 113.59239 527.68724 125.10499 557.94531 124.20898 C 588.20343 123.31297 588.97376 120.23582 588.12109 98.255859 C 587.26842 76.275899 584.70718 67.566343 554.88867 67.720703 z M 540.32422 77.505859 L 546.48633 77.505859 L 549.04297 103.68164 L 552.12305 86.748047 L 557.97461 86.748047 L 561.55664 103.68164 L 563.5625 77.505859 L 569.77148 77.505859 L 565.66406 113.16211 L 559.0957 113.16211 L 555.03711 94.439453 L 551.23828 113.16211 L 544.71875 113.16211 L 540.32422 77.505859 z "
         style="fill:#00bcd4;fill-rule:evenodd;stroke:none;stroke-width:1px;stroke-linecap:butt;stroke-linejoin:miter;stroke-opacity:1;fill-opacity:1" />
      <path
         id="path4334"
         transform="translate(0,343.70079)"
         d="M 573.61328 128.0332 C 543.79478 128.18756 547.44603 137.12245 548.01953 155.51367 C 548.59303 173.9049 551.46634 186.76589 576.66797 184.52148 C 601.8696 182.27707 602.65334 179.20103 606.8457 158.56641 C 611.03806 137.93179 603.43179 127.87884 573.61328 128.0332 z M 576.75391 135.95508 C 578.39383 135.95508 580.03391 136.14718 581.67383 136.5293 C 583.31375 136.89549 584.9388 137.44339 586.54688 138.17578 L 586.54688 145.05469 C 585.03433 143.98794 583.49781 143.1764 581.9375 142.61914 C 580.37719 142.06189 578.83316 141.7832 577.30469 141.7832 C 575.60108 141.7832 574.29425 142.12592 573.38672 142.81055 C 572.47919 143.49517 572.02539 144.47432 572.02539 145.74805 C 572.02539 146.73518 572.35308 147.55425 573.00586 148.20703 C 573.67457 148.84389 575.05851 149.55187 577.16016 150.33203 L 580.19336 151.47852 C 583.05924 152.52934 585.1701 153.92275 586.52344 155.6582 C 587.87677 157.39365 588.55273 159.58358 588.55273 162.22656 C 588.55273 165.82484 587.48505 168.51561 585.35156 170.29883 C 583.23399 172.06612 580.02734 172.94922 575.72852 172.94922 C 573.96122 172.94922 572.18556 172.73457 570.40234 172.30469 C 568.63505 171.89073 566.92342 171.26933 565.26758 170.44141 L 565.26758 163.1582 C 567.14632 164.49561 568.96152 165.48979 570.71289 166.14258 C 572.48018 166.79536 574.22383 167.12109 575.94336 167.12109 C 577.67881 167.12109 579.02322 166.73133 579.97852 165.95117 C 580.93381 165.15509 581.41211 164.04983 581.41211 162.63281 C 581.41211 161.56607 581.09389 160.63397 580.45703 159.83789 C 579.82017 159.02589 578.89559 158.38946 577.68555 157.92773 L 574.22266 156.61328 C 570.67215 155.25995 568.26952 153.84399 567.01172 152.36328 C 565.75391 150.86665 565.125 148.85936 565.125 146.34375 C 565.125 143.11167 566.15871 140.57346 568.22852 138.72656 C 570.29832 136.87966 573.13971 135.95508 576.75391 135.95508 z "
         style="fill:#00bcd4;fill-rule:evenodd;stroke:none;stroke-width:1px;stroke-linecap:butt;stroke-linejoin:miter;stroke-opacity:1;fill-opacity:1" />
      <path
         id="path4336"
         transform="translate(0,343.70079)"
         d="M 518.53906 123.1875 C 515.90651 123.16082 513.00818 123.37067 509.81641 123.82812 C 484.28214 127.4878 486.73062 135.43856 484.22266 151.30859 C 481.7147 167.17862 482.61301 181.21437 512.87109 180.31836 C 543.12922 179.42235 543.90149 176.34324 543.04883 154.36328 C 542.30274 135.13082 536.9669 123.37426 518.53906 123.1875 z M 506.54297 135.08594 L 515.16602 135.08594 L 524.78906 170.74219 L 517.74414 170.74219 L 515.54688 161.92969 L 506.11328 161.92969 L 503.96484 170.74219 L 496.91992 170.74219 L 506.54297 135.08594 z M 510.8418 141.5332 L 507.52344 156.125 L 514.18555 156.125 L 510.8418 141.5332 z "
         style="fill:#00bcd4;fill-rule:evenodd;stroke:none;stroke-width:1px;stroke-linecap:butt;stroke-linejoin:miter;stroke-opacity:1;fill-opacity:1" />
      <path
         id="path4338"
         transform="translate(0,343.70079)"
         d="M 647.11719 126.66406 C 644.15158 126.70053 640.8745 127.04046 637.26758 127.7168 C 608.41224 133.12747 613.45566 139.15943 611.67578 155.19727 C 609.8959 171.23511 615.93094 188.22899 640.32422 184.20508 C 664.7175 180.18117 667.17688 178.00482 670.5 158.25195 C 673.40773 140.96819 667.87642 126.40878 647.11719 126.66406 z M 628.44922 137.61133 L 635.99609 137.61133 C 641.82339 137.61133 646.01866 139.00279 648.58203 141.78906 C 651.1454 144.55942 652.42773 149.0974 652.42773 155.40234 C 652.42773 161.72321 651.1454 166.28569 648.58203 169.08789 C 646.01866 171.87416 641.82339 173.26758 635.99609 173.26758 L 628.44922 173.26758 L 628.44922 137.61133 z M 635.49414 143.96289 L 635.49414 166.91406 L 637.40625 166.91406 C 640.1766 166.91406 642.14993 166.046 643.32812 164.31055 C 644.50632 162.55917 645.0957 159.58972 645.0957 155.40234 C 645.0957 151.24681 644.50632 148.30186 643.32812 146.56641 C 642.14993 144.83096 640.1766 143.96289 637.40625 143.96289 L 635.49414 143.96289 z "
         style="fill:#00bcd4;fill-rule:evenodd;stroke:none;stroke-width:1px;stroke-linecap:butt;stroke-linejoin:miter;stroke-opacity:1;fill-opacity:1" />
    </g>
    <g
       id="g7055"
       transform="translate(-40.168563,-22)">
      <path
         inkscape:connector-curvature="0"
         id="path4356"
         d="m 349.32225,636.41954 c -0.91773,-0.008 -1.85731,-0.007 -2.82031,0.002 -30.81612,0.27906 -26.1653,9.08924 -25.5918,27.48047 0.5735,18.39122 -1.60963,29.90382 28.64844,29.00781 30.25812,-0.89601 25.12538,-3.23528 30.17578,-25.95312 4.89257,-22.00791 -1.96249,-30.29445 -30.41211,-30.53711 z m -6.91406,8.5957 10.15625,0 0,3.79883 -4.8379,0 0,28.9082 4.8379,0 0,3.79883 -10.15625,0 0,-36.50586 z"
         style="fill:#00bcd4;fill-opacity:1;fill-rule:evenodd;stroke:none;stroke-width:1px;stroke-linecap:butt;stroke-linejoin:miter;stroke-opacity:1" />
      <path
         inkscape:connector-curvature="0"
         id="path4358"
         d="m 365.22459,696.73399 c -29.8185,0.15436 -26.16529,9.08925 -25.59179,27.48047 0.57349,18.39123 2.58308,26.9336 28.64843,29.00781 26.06535,2.07421 26.53313,-2.57189 30.17578,-25.95507 3.64265,-23.38318 -3.41391,-30.68757 -33.23242,-30.53321 z m 0.77735,12.4961 6.11328,0 0,13.2539 -6.11328,0 0,-13.2539 z"
         style="fill:#00bcd4;fill-opacity:1;fill-rule:evenodd;stroke:none;stroke-width:1px;stroke-linecap:butt;stroke-linejoin:miter;stroke-opacity:1" />
      <path
         sodipodi:nodetypes="zsszzcccccccccccc"
         inkscape:connector-curvature="0"
         id="path4360"
         d="m 301.42772,692.52891 c -25.39475,-2.08078 -27.78978,14.52508 -25.5918,27.48047 1.53781,9.0642 -1.60964,29.90578 28.64844,29.00977 30.25813,-0.89601 31.31636,-4.24962 30.17578,-25.95508 -1.14058,-21.70546 -7.83767,-28.45438 -33.23242,-30.53516 z m -0.46094,14.5625 7.95312,0 0,8.7168 -7.95312,0 z m 0,16.6211 7.95312,0 0,6.47266 -4.68164,9.14648 -5.13476,0 1.86328,-9.14648 z"
         style="fill:#00bcd4;fill-opacity:1;fill-rule:evenodd;stroke:none;stroke-width:1px;stroke-linecap:butt;stroke-linejoin:miter;stroke-opacity:1" />
      <path
         inkscape:connector-curvature="0"
         id="path4362"
         d="m 421.69334,639.15196 c -2.9656,0.0365 -6.24269,0.37445 -9.84961,1.05078 -28.85534,5.41067 -23.11531,5.87178 -25.59179,27.48243 -2.47648,21.61064 4.06157,34.58037 28.64843,29.00781 24.58686,-5.57256 26.85266,-6.20221 30.17578,-25.95508 2.90773,-17.28376 -2.62358,-31.84122 -23.38281,-31.58594 z m -15.4043,10.33985 10.15626,0 0,36.5039 -10.15626,0 0,-3.79883 4.8379,0 0,-28.9082 -4.8379,0 0,-3.79687 z"
         style="fill:#00bcd4;fill-opacity:1;fill-rule:evenodd;stroke:none;stroke-width:1px;stroke-linecap:butt;stroke-linejoin:miter;stroke-opacity:1" />
    </g>
    <g
       id="g7093"
       transform="translate(-28.000573,6.8161754)">
      <path
         sodipodi:nodetypes="sccsssssccccsssccccsscsccccccsccccssccccccccccccccccccccccccccscscscsccccccccccccccscscscc"
         inkscape:connector-curvature="0"
         id="path6927"
         d="m 168.57812,624.43907 c -20.78507,-0.16117 -74.150386,2.20313 -74.150386,2.20313 l -1.009765,131.35742 77.275391,0 c 7.57614,0 11.87012,-7.29627 13.13281,-13.75195 1.26269,-6.45569 5.55606,-87.29344 5.8086,-92.34571 0.25254,-5.05226 -3.28287,-26.10188 -14.39454,-27.22461 -1.38896,-0.14034 -3.69281,-0.21525 -6.66211,-0.23828 z m 4.27735,25.52734 c 0.46315,0.0246 0.92801,0.0761 1.39453,0.1543 0.93248,0.14751 1.86152,0.39799 2.78906,0.75196 l 0.24414,3.85742 c -0.88576,-0.54482 -1.77729,-0.94568 -2.67187,-1.20313 -0.89458,-0.25744 -1.76988,-0.36054 -2.62695,-0.30664 -0.95528,0.0601 -1.67542,0.29894 -2.16016,0.71485 -0.48474,0.4159 -0.70508,0.98108 -0.66016,1.69531 0.0348,0.55352 0.24766,1.00073 0.63672,1.34375 0.39743,0.33353 1.19831,0.68353 2.4043,1.04687 l 1.74219,0.53516 c 1.64406,0.48816 2.87524,1.19569 3.69531,2.12109 0.82007,0.92541 1.27788,2.12736 1.37109,3.60938 0.12691,2.01768 -0.37633,3.56546 -1.50976,4.64062 -1.12507,1.06567 -2.89418,1.67456 -5.30469,1.82617 -0.99099,0.0623 -1.99274,0.004 -3.00781,-0.17382 -1.00559,-0.1698 -1.98762,-0.45744 -2.94532,-0.86329 l -0.25781,-4.08593 c 1.10065,0.68367 2.15508,1.17815 3.16016,1.48242 1.01401,0.30371 2.00259,0.42588 2.96679,0.36523 0.97314,-0.0612 1.71255,-0.32767 2.22071,-0.79882 0.50759,-0.48009 0.73747,-1.11754 0.6875,-1.91211 -0.0376,-0.59817 -0.24958,-1.10928 -0.63477,-1.53321 -0.38575,-0.43285 -0.92629,-0.75837 -1.62109,-0.97461 l -1.98828,-0.61328 c -2.03864,-0.63364 -3.43584,-1.34298 -4.19336,-2.1289 -0.75808,-0.79486 -1.18081,-1.898 -1.26953,-3.3086 -0.11399,-1.81234 0.37522,-3.27223 1.4707,-4.38086 1.09548,-1.10862 2.65698,-1.728 4.68359,-1.85547 0.45979,-0.0289 0.92162,-0.0305 1.38477,-0.006 z m -11.40625,1 0.21875,3.48243 -8.50195,0.5332 0.26953,4.3125 7.70117,-0.48437 0.21875,3.48242 -7.69922,0.48437 0.32813,5.23633 8.5039,-0.53516 0.21875,3.48243 -12.45312,0.7832 -1.25782,-19.99414 z m -15.89453,1 0.21679,3.45508 -5.07617,0.31836 1.04102,16.53906 -3.95117,0.24805 -1.03907,-16.53906 -5.07617,0.32031 -0.2168,-3.45508 z m -22.73242,1.10743 c 1.91812,0.0715 3.44089,0.84037 4.56835,2.30664 1.29746,1.67517 2.05252,4.22322 2.26758,7.64258 0.2145,3.41042 -0.21562,6.02702 -1.29297,7.85156 -1.06841,1.82397 -2.7647,2.80908 -5.08593,2.95508 -2.31231,0.14543 -4.11661,-0.61976 -5.41407,-2.29493 -1.28853,-1.67573 -2.0394,-4.21848 -2.2539,-7.6289 -0.21506,-3.41936 0.21088,-6.04126 1.27929,-7.86524 1.07735,-1.82453 2.77168,-2.80964 5.08399,-2.95507 0.29015,-0.0182 0.57364,-0.0219 0.84766,-0.0117 z m -10.68165,0.99414 1.25782,19.99414 -4.2168,0.26367 -6.51172,-14.17773 0.91211,14.53125 -3.48047,0.21875 -1.25781,-19.99415 4.24414,-0.26757 6.48633,14.17968 -0.91406,-14.52929 z m 10.0586,2.5664 c -1.00884,0.0635 -1.71307,0.6503 -2.10938,1.75977 -0.39686,1.10054 -0.51823,2.85232 -0.36718,5.25391 0.15048,2.39265 0.49124,4.11299 1.02343,5.16406 0.53163,1.04214 1.30171,1.5322 2.31055,1.46875 1.01777,-0.064 1.72423,-0.64556 2.12109,-1.7461 0.39631,-1.10946 0.51963,-2.86125 0.36915,-5.2539 -0.15105,-2.40159 -0.49181,-4.12388 -1.02344,-5.16602 -0.53219,-1.05106 -1.30645,-1.54448 -2.32422,-1.48047 z"
         style="fill:#00bcd4;fill-opacity:1;fill-rule:evenodd;stroke:none;stroke-width:1px;stroke-linecap:butt;stroke-linejoin:miter;stroke-opacity:1" />
      <path
         sodipodi:nodetypes="ccc"
         inkscape:connector-curvature="0"
         id="path6295"
         d="m 93.842382,640.20332 c 1.775923,-4.0237 -1.545816,-10.44196 -8.597971,-9.5318 -7.052154,0.91016 -8.835557,4.95437 -6.935232,8.19391"
         style="fill:none;fill-rule:evenodd;stroke:#00bcd4;stroke-width:4.80000019;stroke-linecap:round;stroke-linejoin:miter;stroke-miterlimit:4;stroke-dasharray:none;stroke-opacity:1" />
      <path
         style="fill:none;fill-rule:evenodd;stroke:#00bcd4;stroke-width:4.80000019;stroke-linecap:round;stroke-linejoin:miter;stroke-miterlimit:4;stroke-dasharray:none;stroke-opacity:1"
         d="m 93.842382,649.42097 c 1.775923,-4.0237 -1.545816,-10.44196 -8.597971,-9.5318 -7.052154,0.91016 -8.835557,4.95437 -6.935232,8.19391"
         id="path6905"
         inkscape:connector-curvature="0"
         sodipodi:nodetypes="ccc" />
      <path
         sodipodi:nodetypes="ccc"
         inkscape:connector-curvature="0"
         id="path6907"
         d="m 93.842382,660.28011 c 1.775923,-4.0237 -1.545816,-10.44196 -8.597971,-9.5318 -7.052154,0.91016 -8.835557,4.95437 -6.935232,8.19391"
         style="fill:none;fill-rule:evenodd;stroke:#00bcd4;stroke-width:4.80000019;stroke-linecap:round;stroke-linejoin:miter;stroke-miterlimit:4;stroke-dasharray:none;stroke-opacity:1" />
      <path
         style="fill:none;fill-rule:evenodd;stroke:#00bcd4;stroke-width:4.80000019;stroke-linecap:round;stroke-linejoin:miter;stroke-miterlimit:4;stroke-dasharray:none;stroke-opacity:1"
         d="m 93.842382,670.00283 c 1.775923,-4.0237 -1.545816,-10.44196 -8.597971,-9.5318 -7.052154,0.91016 -8.835557,4.95437 -6.935232,8.19391"
         id="path6909"
         inkscape:connector-curvature="0"
         sodipodi:nodetypes="ccc" />
      <path
         sodipodi:nodetypes="ccc"
         inkscape:connector-curvature="0"
         id="path6911"
         d="m 93.842382,679.34674 c 1.775923,-4.0237 -1.545816,-10.44196 -8.597971,-9.5318 -7.052154,0.91016 -8.835557,4.95437 -6.935232,8.19391"
         style="fill:none;fill-rule:evenodd;stroke:#00bcd4;stroke-width:4.80000019;stroke-linecap:round;stroke-linejoin:miter;stroke-miterlimit:4;stroke-dasharray:none;stroke-opacity:1" />
      <path
         style="fill:none;fill-rule:evenodd;stroke:#00bcd4;stroke-width:4.80000019;stroke-linecap:round;stroke-linejoin:miter;stroke-miterlimit:4;stroke-dasharray:none;stroke-opacity:1"
         d="m 93.842382,690.20588 c 1.775923,-4.0237 -1.545816,-10.44196 -8.597971,-9.5318 -7.052154,0.91016 -8.835557,4.95437 -6.935232,8.19391"
         id="path6913"
         inkscape:connector-curvature="0"
         sodipodi:nodetypes="ccc" />
      <path
         sodipodi:nodetypes="ccc"
         inkscape:connector-curvature="0"
         id="path6915"
         d="m 93.842382,700.81248 c 1.775923,-4.0237 -1.545816,-10.44196 -8.597971,-9.5318 -7.052154,0.91016 -8.835557,4.95437 -6.935232,8.19391"
         style="fill:none;fill-rule:evenodd;stroke:#00bcd4;stroke-width:4.80000019;stroke-linecap:round;stroke-linejoin:miter;stroke-miterlimit:4;stroke-dasharray:none;stroke-opacity:1" />
      <path
         style="fill:none;fill-rule:evenodd;stroke:#00bcd4;stroke-width:4.80000019;stroke-linecap:round;stroke-linejoin:miter;stroke-miterlimit:4;stroke-dasharray:none;stroke-opacity:1"
         d="m 93.842382,711.41908 c 1.775923,-4.0237 -1.545816,-10.44196 -8.597971,-9.5318 -7.052154,0.91016 -8.835557,4.95437 -6.935232,8.19391"
         id="path6917"
         inkscape:connector-curvature="0"
         sodipodi:nodetypes="ccc" />
      <path
         sodipodi:nodetypes="ccc"
         inkscape:connector-curvature="0"
         id="path6919"
         d="m 93.842382,721.52061 c 1.775923,-4.0237 -1.545816,-10.44196 -8.597971,-9.5318 -7.052154,0.91016 -8.835557,4.95437 -6.935232,8.19391"
         style="fill:none;fill-rule:evenodd;stroke:#00bcd4;stroke-width:4.80000019;stroke-linecap:round;stroke-linejoin:miter;stroke-miterlimit:4;stroke-dasharray:none;stroke-opacity:1" />
      <path
         style="fill:none;fill-rule:evenodd;stroke:#00bcd4;stroke-width:4.80000019;stroke-linecap:round;stroke-linejoin:miter;stroke-miterlimit:4;stroke-dasharray:none;stroke-opacity:1"
         d="m 93.842382,731.87467 c 1.775923,-4.0237 -1.545816,-10.44196 -8.597971,-9.5318 -7.052154,0.91016 -8.835557,4.95437 -6.935232,8.19391"
         id="path6921"
         inkscape:connector-curvature="0"
         sodipodi:nodetypes="ccc" />
      <path
         sodipodi:nodetypes="ccc"
         inkscape:connector-curvature="0"
         id="path6923"
         d="m 93.842382,742.98635 c 1.775923,-4.0237 -1.545816,-10.44196 -8.597971,-9.5318 -7.052154,0.91016 -8.835557,4.95437 -6.935232,8.19391"
         style="fill:none;fill-rule:evenodd;stroke:#00bcd4;stroke-width:4.80000019;stroke-linecap:round;stroke-linejoin:miter;stroke-miterlimit:4;stroke-dasharray:none;stroke-opacity:1" />
      <path
         style="fill:none;fill-rule:evenodd;stroke:#00bcd4;stroke-width:4.80000019;stroke-linecap:round;stroke-linejoin:miter;stroke-miterlimit:4;stroke-dasharray:none;stroke-opacity:1"
         d="m 93.842382,751.57265 c 2.414582,-2.96507 -1.545816,-10.44196 -8.597971,-9.5318 -7.052154,0.91016 -8.79461,4.75533 -6.935232,8.19391 2.617148,4.83994 12.129041,5.51814 15.533203,1.33789 z"
         id="path6925"
         inkscape:connector-curvature="0"
         sodipodi:nodetypes="scss" />
    </g>
    <path
       style="fill:#00bcd4;fill-opacity:1;fill-rule:evenodd;stroke:none;stroke-width:1px;stroke-linecap:butt;stroke-linejoin:miter;stroke-opacity:1"
       d="m 116.87807,864.11792 c -2.2362,-2.3e-4 -4.52996,0.12573 -6.87891,0.38672 -66.513283,7.39036 -81.293363,98.04196 -22.945313,118.18555 -24.16847,12.47671 -54.93134,10.04931 -54.19726,17.81441 0.73408,7.7652 162.434683,16.3798 166.429683,0.7149 3.995,-15.6649 -33.02802,-5.92937 -60.5664,-18.9629 58.025,-21.87433 39.83404,-118.13227 -21.8418,-118.13868 z m -10.3418,19.5586 c 1.52705,-0.0384 3.09154,0.009 4.69141,0.14648 25.37149,2.18327 41.25753,22.83018 43.06445,43.07227 0.90346,10.12104 -1.70871,20.35317 -8.58789,28.01172 -6.87917,7.65855 -17.88998,12.43938 -32.63672,12.27929 -14.80735,-0.16074 -26.045623,-5.69936 -33.244143,-13.96875 -7.19851,-8.26938 -10.37981,-19.04058 -10.08984,-29.56445 0.28997,-10.52386 4.02577,-20.91859 11.08789,-28.56836 6.17935,-6.69355 15.025513,-11.13917 25.714843,-11.4082 z m 0.16993,7.68554 c -8.70782,0.17014 -15.32722,3.63618 -20.228523,8.94532 -5.60148,6.06759 -8.80373,14.73184 -9.04687,23.55664 -0.24316,8.8248 2.44748,17.69145 8.19921,24.29882 5.751733,6.60738 14.542313,11.18332 27.521493,11.32422 13.084,0.14203 21.57468,-3.88034 26.82422,-9.72461 5.24953,-5.84428 7.39363,-13.8136 6.64648,-22.18359 -1.4943,-16.73997 -14.54387,-34.23294 -36.05469,-36.08398 -1.33027,-0.11448 -2.61735,-0.15712 -3.86132,-0.13282 z m 17.49609,11.58985 c 4.88279,3.19339 9.56143,6.93139 13.14453,13.59375 l -9.20117,9.64844 c -1.91483,-7.87516 -4.84714,-14.58627 -11.83008,-16.66407 z"
       id="path6985"
       inkscape:connector-curvature="0"
       sodipodi:nodetypes="ssczzcsssssssssssssssssssccccc" />
    <g
       id="g7051"
       transform="translate(0,-6)">
      <path
         id="path7000"
         transform="translate(0,343.70079)"
         d="m 415.57422,493.89648 c -13.06949,0.0754 -32.07466,1.96862 -59.64844,2.97071 -98.0401,3.56297 -99.23602,-7.15379 -94.49609,90.53515 4.73993,97.68894 -2.67296,88.79264 103.18554,84.05274 105.85849,-4.7399 78.46867,-1.58962 78.77149,-97.28711 0.21764,-68.78259 5.58731,-80.4642 -27.8125,-80.27149 z m -2.83984,15.41407 11.94531,0 0,5.50781 -11.94531,0 0,-5.50781 z m -109.14649,18.48047 c 12.38428,0.0644 29.59425,0.99067 53.30859,1.17773 94.85738,0.74825 72.25192,-11.27508 74.74805,66.60156 2.49613,77.87662 13.87539,61.5529 -70.00391,65.3086 -83.87931,3.7557 -78.59941,10.87549 -84.49804,-67.17774 -4.42397,-58.53994 -10.70753,-66.1034 26.44531,-65.91015 z"
         style="fill:#00bcd4;fill-opacity:1;fill-rule:evenodd;stroke:none;stroke-width:1px;stroke-linecap:butt;stroke-linejoin:miter;stroke-opacity:1"
         inkscape:connector-curvature="0" />
      <path
         sodipodi:nodetypes="zzzz"
         inkscape:connector-curvature="0"
         id="path7004"
         d="m 329.30973,942.76066 c 1.26269,-52.02289 -9.59644,-64.1447 34.34519,-29.29443 43.94164,34.85026 36.36548,25.25382 2.0203,52.02286 -34.34519,26.76905 -37.62818,29.29446 -36.36549,-22.72843 z"
         style="fill:#00bcd4;fill-opacity:1;fill-rule:evenodd;stroke:none;stroke-width:1px;stroke-linecap:butt;stroke-linejoin:miter;stroke-opacity:1" />
    </g>
    <g
       id="g7043">
      <path
         id="path7016"
         transform="translate(0,343.70079)"
         d="M 521.28125 268.75195 C 478.67721 269.07336 478.58763 282.7079 482.14258 355.97461 C 486.88251 453.66355 472.32846 445.47958 577.47266 445.02539 C 682.61687 444.57121 665.20606 439.07526 666.95898 348.45312 C 668.7119 257.83101 679.85233 275.69586 579.49609 271.15234 C 554.40703 270.01646 535.4826 268.64482 521.28125 268.75195 z M 636.30664 283.5957 L 648.25195 283.5957 L 648.25195 289.10352 L 636.30664 289.10352 L 636.30664 283.5957 z M 517.33398 300.41406 C 529.39418 300.23768 548.0905 302.26339 576.89648 303.25586 C 669.07563 306.43175 652.81384 293.35461 651.64453 369.85742 C 650.47522 446.36023 663.58955 431.40836 581.64062 435.16406 C 499.69171 438.91976 498.23333 449.64549 497.14258 367.98633 C 496.39269 311.84566 490.80156 300.8021 517.33398 300.41406 z "
         style="fill:#00bcd4;fill-rule:evenodd;stroke:none;stroke-width:1px;stroke-linecap:butt;stroke-linejoin:miter;stroke-opacity:1;fill-opacity:1" />
      <g
         id="text7026"
         style="font-style:normal;font-variant:normal;font-weight:bold;font-stretch:normal;font-size:54.44240952px;line-height:125%;font-family:'Bitstream Vera Sans Mono';-inkscape-font-specification:'Bitstream Vera Sans Mono Bold';text-align:start;letter-spacing:0px;word-spacing:0px;text-anchor:start;fill:#00bcd4;fill-opacity:1;stroke:none;stroke-width:1px;stroke-linecap:butt;stroke-linejoin:miter;stroke-opacity:1">
        <path
           id="path7035"
           style=""
           d="m 518.5892,715.61455 8.77245,0 0,-25.75913 -8.16104,2.02033 0,-7.07114 8.21421,-1.96716 7.57621,0 0,32.7771 8.77246,0 0,6.91163 -25.17429,0 0,-6.91163 z" />
        <path
           id="path7037"
           style=""
           d="m 549.15988,707.87884 0,-25.04139 7.84205,0 0,27.00854 q 0,2.97732 1.51524,4.67865 1.51525,1.67474 4.20015,1.67474 2.6849,0 4.20015,-1.67474 1.51524,-1.70133 1.51524,-4.67865 l 0,-27.00854 7.84205,0 0,25.04139 q 0,8.08129 -3.21657,11.74977 -3.21657,3.66849 -10.34087,3.66849 -7.09772,0 -10.34087,-3.66849 -3.21657,-3.66848 -3.21657,-11.74977 z" />
        <path
           id="path7039"
           style=""
           d="m 591.2411,689.43009 0,11.64345 3.21657,0 q 3.85456,0 5.39639,-1.30258 1.56841,-1.30258 1.56841,-4.51915 0,-3.21657 -1.56841,-4.51914 -1.54183,-1.30258 -5.39639,-1.30258 l -3.21657,0 z m -7.84205,-6.59264 10.7662,0 q 8.21422,0 11.80295,2.92416 3.61531,2.92415 3.61531,9.4902 0,6.56606 -3.61531,9.49021 -3.58873,2.92415 -11.80295,2.92415 l -2.92415,0 0,14.86001 -7.84205,0 0,-39.68873 z" />
        <path
           id="path7041"
           style=""
           d="m 624.68278,715.00314 7.09771,0 0,7.52304 -7.09771,0 0,-7.52304 z m 0,-32.16569 7.09771,0 0,17.41201 -0.87724,9.4902 -5.29006,0 -0.93041,-9.4902 0,-17.41201 z" />
      </g>
    </g>
    <g
       id="g7108"
       transform="matrix(0.85904523,0,0,0.85904523,101.73443,131.08223)">
      <path
         sodipodi:nodetypes="zzzzz"
         inkscape:connector-curvature="0"
         id="path7067"
         d="m 539.29929,986.10033 c -11.40519,-24.20253 15.6648,-54.66124 71.4132,-72.19296 55.7484,-17.53173 69.90556,-11.48771 75.27521,15.3885 5.36964,26.87622 -19.417,45.76616 -47.64876,57.44573 -28.23175,11.67956 -87.63444,23.5613 -99.03965,-0.64127 z"
         style="fill:#00bcd4;fill-opacity:1;fill-rule:evenodd;stroke:none;stroke-width:1px;stroke-linecap:butt;stroke-linejoin:miter;stroke-opacity:1" />
      <path
         sodipodi:nodetypes="cccscc"
         inkscape:connector-curvature="0"
         id="path7069"
         d="m 537.47132,957.11584 c 26.51762,-33.85023 66.89623,-47.23787 116.62534,-56.06455 -4.46738,-8.27749 -15.0933,-13.21965 -23.36585,-16.05945 -0.20655,0.77457 -1.94957,8.65948 -45.53072,26.64604 -47.00851,19.4011 -76.97111,20.71325 -76.97111,20.71325 9.74745,11.78849 19.49489,18.0282 29.24234,24.76471 z"
         style="fill:#00bcd4;fill-opacity:1;fill-rule:evenodd;stroke:none;stroke-width:1px;stroke-linecap:butt;stroke-linejoin:miter;stroke-opacity:1" />
      <path
         sodipodi:nodetypes="csccscc"
         inkscape:connector-curvature="0"
         id="path7071"
         d="m 508.51459,944.44174 c -8.33359,-8.59329 -69.24471,-46.29326 0.65165,-73.77133 83.55631,-32.84815 121.97593,18.72792 121.97593,18.72792 l -1.06067,13.43503 c 0,0 -38.31543,-46.32468 -102.17693,-25.26866 -101.54085,33.47942 -33.58534,71.47338 -20.80419,82.43339 2.39732,-3.76743 1.58146,-9.30895 1.41421,-15.55635 z"
         style="fill:#00bcd4;fill-opacity:1;fill-rule:evenodd;stroke:none;stroke-width:1px;stroke-linecap:butt;stroke-linejoin:miter;stroke-opacity:1" />
      <path
         sodipodi:nodetypes="ccccc"
         inkscape:connector-curvature="0"
         id="path7073"
         d="m 511.11079,939.25977 c 0.25892,10.94268 0.61731,22.16386 -1.41422,26.69327 l 24.74873,19.09188 c -0.26918,-6.81226 -2.5616,-17.93588 0.70712,-25.63262 -6.59966,-4.24876 -17.44197,-11.69422 -24.04163,-20.15253 z"
         style="fill:#00bcd4;fill-opacity:1;fill-rule:evenodd;stroke:none;stroke-width:1px;stroke-linecap:butt;stroke-linejoin:miter;stroke-opacity:1" />
    </g>
  </g>
</svg>
