<?xml version="1.0" encoding="UTF-8" standalone="no"?>
<!-- Created with Inkscape (http://www.inkscape.org/) -->

<svg
   xmlns:dc="http://purl.org/dc/elements/1.1/"
   xmlns:cc="http://creativecommons.org/ns#"
   xmlns:rdf="http://www.w3.org/1999/02/22-rdf-syntax-ns#"
   xmlns:svg="http://www.w3.org/2000/svg"
   xmlns="http://www.w3.org/2000/svg"
   xmlns:sodipodi="http://sodipodi.sourceforge.net/DTD/sodipodi-0.dtd"
   xmlns:inkscape="http://www.inkscape.org/namespaces/inkscape"
   width="297.30096mm"
   height="18.815773mm"
   viewBox="0 0 1053.4286 66.670064"
   id="svg2"
   version="1.1"
   inkscape:version="0.91 r13725"
   sodipodi:docname="steps.svg">
  <defs
     id="defs4" />
  <sodipodi:namedview
     id="base"
     pagecolor="#ffffff"
     bordercolor="#666666"
     borderopacity="1.0"
     inkscape:pageopacity="0.0"
     inkscape:pageshadow="2"
     inkscape:zoom="0.9899495"
     inkscape:cx="426.04142"
     inkscape:cy="32.724983"
     inkscape:document-units="px"
     inkscape:current-layer="layer1"
     showgrid="false"
     fit-margin-top="0"
     fit-margin-left="0"
     fit-margin-right="0"
     fit-margin-bottom="0"
     showguides="true"
     inkscape:window-width="1920"
     inkscape:window-height="1055"
     inkscape:window-x="0"
     inkscape:window-y="25"
     inkscape:window-maximized="1" />
  <metadata
     id="metadata7">
    <rdf:RDF>
      <cc:Work
         rdf:about="">
        <dc:format>image/svg+xml</dc:format>
        <dc:type
           rdf:resource="http://purl.org/dc/dcmitype/StillImage" />
        <dc:title />
      </cc:Work>
    </rdf:RDF>
  </metadata>
  <g
     inkscape:label="Layer 1"
     inkscape:groupmode="layer"
     id="layer1"
     transform="translate(146.71428,106.74236)">
    <path
       inkscape:connector-curvature="0"
       id="path4144"
       d="m 380.00001,-224.93022 0,66.67006"
       style="fill:#424242;fill-rule:evenodd;stroke:#000000;stroke-width:1px;stroke-linecap:butt;stroke-linejoin:miter;stroke-opacity:1;fill-opacity:1" />
    <path
       style="fill:#424242;fill-rule:evenodd;stroke:#000000;stroke-width:1px;stroke-linecap:butt;stroke-linejoin:miter;stroke-opacity:1;fill-opacity:1"
       d="m -146.21428,-224.93022 0,66.67006"
       id="path4138"
       inkscape:connector-curvature="0" />
    <path
       inkscape:connector-curvature="0"
       id="path4140"
       d="m 29.19049,-224.93022 0,66.67006"
       style="fill:#424242;fill-rule:evenodd;stroke:#000000;stroke-width:1px;stroke-linecap:butt;stroke-linejoin:miter;stroke-opacity:1;fill-opacity:1" />
    <path
       style="fill:#424242;fill-rule:evenodd;stroke:#000000;stroke-width:1px;stroke-linecap:butt;stroke-linejoin:miter;stroke-opacity:1;fill-opacity:1"
       d="m 204.59526,-224.93022 0,66.67006"
       id="path4142"
       inkscape:connector-curvature="0" />
    <path
       style="fill:#424242;fill-rule:evenodd;stroke:#000000;stroke-width:1px;stroke-linecap:butt;stroke-linejoin:miter;stroke-opacity:1;fill-opacity:1"
       d="m 555.4048,-224.93022 0,66.67006"
       id="path4146"
       inkscape:connector-curvature="0" />
    <path
       inkscape:connector-curvature="0"
       id="path4148"
       d="m 730.80958,-224.93022 0,66.67006"
       style="fill:#424242;fill-rule:evenodd;stroke:#000000;stroke-width:1px;stroke-linecap:butt;stroke-linejoin:miter;stroke-opacity:1;fill-opacity:1" />
    <path
       style="fill:#424242;fill-rule:evenodd;stroke:#000000;stroke-width:1px;stroke-linecap:butt;stroke-linejoin:miter;stroke-opacity:1;fill-opacity:1"
       d="m 906.21431,-224.93022 0,66.67006"
       id="path4150"
       inkscape:connector-curvature="0" />
    <path
       style="color:#000000;clip-rule:nonzero;display:inline;overflow:visible;visibility:visible;opacity:1;isolation:auto;mix-blend-mode:normal;color-interpolation:sRGB;color-interpolation-filters:linearRGB;solid-color:#000000;solid-opacity:1;fill:#424242;fill-opacity:1;fill-rule:nonzero;stroke:none;stroke-width:4;stroke-miterlimit:4;stroke-dasharray:none;stroke-opacity:1;color-rendering:auto;image-rendering:auto;shape-rendering:auto;text-rendering:auto;enable-background:accumulate"
       d="M 526.71484 8.5859375 A 24.748726 24.748726 0 0 0 501.96484 33.335938 A 24.748726 24.748726 0 0 0 526.71484 58.083984 A 24.748726 24.748726 0 0 0 551.12305 37.232422 L 831.48633 37.232422 L 831.48633 43.767578 L 845.25 33.335938 L 831.48633 22.902344 L 831.48633 29.4375 L 551.14062 29.4375 A 24.748726 24.748726 0 0 0 526.71484 8.5859375 z M 526.125 22.802734 C 528.14822 22.802734 529.77519 23.34293 531.00391 24.423828 C 532.24186 25.495488 532.85938 26.904324 532.85938 28.650391 C 532.85938 29.537281 532.65206 30.425609 532.23633 31.3125 C 531.82984 32.199391 531.16408 33.17834 530.24023 34.25 C 529.72288 34.850499 528.97094 35.681719 527.98242 36.744141 C 527.00315 37.806562 525.50617 39.396115 523.49219 41.511719 L 532.99805 41.511719 L 532.99805 43.867188 L 520.42969 43.867188 L 520.42969 41.511719 C 522.15728 39.691745 523.66756 38.084459 524.96094 36.689453 C 526.25432 35.294448 527.14708 34.309112 527.63672 33.736328 C 528.56056 32.609238 529.18251 31.700696 529.50586 31.007812 C 529.8292 30.305691 529.99219 29.589212 529.99219 28.859375 C 529.99219 27.704569 529.65044 26.798508 528.9668 26.142578 C 528.29239 25.486648 527.36416 25.158203 526.18164 25.158203 C 525.34094 25.158203 524.45705 25.312319 523.5332 25.617188 C 522.60936 25.922056 521.63041 26.382977 520.5957 27.001953 L 520.5957 24.175781 C 521.54726 23.723097 522.47993 23.381352 523.39453 23.150391 C 524.31838 22.919429 525.22887 22.802734 526.125 22.802734 z "
       transform="translate(-146.71434,-106.74236)"
       id="rect4251" />
    <path
       style="color:#000000;clip-rule:nonzero;display:inline;overflow:visible;visibility:visible;opacity:1;isolation:auto;mix-blend-mode:normal;color-interpolation:sRGB;color-interpolation-filters:linearRGB;solid-color:#000000;solid-opacity:1;fill:#424242;fill-opacity:1;fill-rule:nonzero;stroke:none;stroke-width:4;stroke-miterlimit:4;stroke-dasharray:none;stroke-opacity:1;color-rendering:auto;image-rendering:auto;shape-rendering:auto;text-rendering:auto;enable-background:accumulate"
       d="M 877.52344 8.5859375 A 24.748729 24.748729 0 0 0 852.77539 33.335938 A 24.748729 24.748729 0 0 0 877.52344 58.083984 A 24.748729 24.748729 0 0 0 902.27344 33.335938 A 24.748729 24.748729 0 0 0 877.52344 8.5859375 z M 876.92773 22.601562 C 878.94172 22.601562 880.549 23.110724 881.75 24.126953 C 882.96024 25.133944 883.56641 26.472372 883.56641 28.144531 C 883.56641 29.28086 883.24683 30.228776 882.60938 30.986328 C 881.98116 31.743881 881.0618 32.279643 879.85156 32.59375 C 881.20961 32.954049 882.2501 33.595687 882.9707 34.519531 C 883.6913 35.434137 884.05078 36.580503 884.05078 37.957031 C 884.05078 39.860151 883.40914 41.357129 882.125 42.447266 C 880.85009 43.528164 879.07983 44.068359 876.81641 44.068359 C 875.86485 44.068359 874.89476 43.980218 873.90625 43.804688 C 872.91774 43.629157 871.94765 43.375553 870.99609 43.042969 L 870.99609 40.257812 C 871.93842 40.74745 872.8686 41.111363 873.7832 41.351562 C 874.69781 41.591762 875.60635 41.712891 876.51172 41.712891 C 878.0453 41.712891 879.22465 41.364758 880.04688 40.671875 C 880.8691 39.978992 881.2793 38.982308 881.2793 37.679688 C 881.2793 36.478689 880.8691 35.526341 880.04688 34.824219 C 879.22465 34.112858 878.11128 33.757812 876.70703 33.757812 L 874.57227 33.757812 L 874.57227 31.457031 L 876.70703 31.457031 C 877.99118 31.457031 878.99229 31.174873 879.71289 30.611328 C 880.43349 30.047783 880.79492 29.26285 880.79492 28.255859 C 880.79492 27.193438 880.45761 26.379951 879.7832 25.816406 C 879.11803 25.243623 878.16569 24.958984 876.92773 24.958984 C 876.10551 24.958984 875.25656 25.049606 874.37891 25.234375 C 873.50125 25.419144 872.58189 25.696868 871.62109 26.066406 L 871.62109 23.488281 C 872.73895 23.192651 873.7312 22.972034 874.59961 22.824219 C 875.47726 22.676404 876.25333 22.601562 876.92773 22.601562 z "
       transform="translate(-146.71434,-106.74236)"
       id="circle4156" />
    <path
       style="color:#000000;clip-rule:nonzero;display:inline;overflow:visible;visibility:visible;opacity:1;isolation:auto;mix-blend-mode:normal;color-interpolation:sRGB;color-interpolation-filters:linearRGB;solid-color:#000000;solid-opacity:1;fill:#424242;fill-opacity:1;fill-rule:nonzero;stroke:none;stroke-width:4;stroke-miterlimit:4;stroke-dasharray:none;stroke-opacity:1;color-rendering:auto;image-rendering:auto;shape-rendering:auto;text-rendering:auto;enable-background:accumulate"
       d="M 175.9043 8.5859375 A 24.748726 24.748726 0 0 0 151.15625 33.335938 A 24.748726 24.748726 0 0 0 175.9043 58.083984 A 24.748726 24.748726 0 0 0 200.31445 37.232422 L 480.67773 37.232422 L 480.67773 43.767578 L 494.43945 33.335938 L 480.67773 22.902344 L 480.67773 29.4375 L 200.33008 29.4375 A 24.748726 24.748726 0 0 0 175.9043 8.5859375 z M 174.68555 22.990234 L 177.48438 22.990234 L 177.48438 41.324219 L 181.78125 41.324219 L 181.78125 43.679688 L 170.36133 43.679688 L 170.36133 41.324219 L 174.71289 41.324219 L 174.71289 25.511719 L 170.0293 26.566406 L 170.0293 24.015625 L 174.68555 22.990234 z "
       transform="translate(-146.71434,-106.74236)"
       id="path4152" />
  </g>
</svg>
